# 3ds Max Wavefront OBJ Exporter v0.97b - (c)2007 guruware
# File Created: 22.08.2018 16:29:59

mtllib floor.mtl

#
# object Gang_Endstück086
#

v  12.0733 -0.0086 -40.3436
v  12.0733 -0.0086 -40.4699
v  11.3365 -0.0086 -40.4699
v  11.3365 -0.0086 -40.1629
v  -23.4008 -0.0040 -19.2245
v  27.1024 -0.0040 -19.2246
v  27.1024 -0.0040 -41.5963
v  -23.4008 -0.0040 -41.5962
v  27.1008 -0.0040 -7.0494
v  42.0920 -0.0040 -7.8164
v  42.0921 -0.0040 -41.5963
v  -0.6845 -0.0040 -17.3946
v  1.0448 -0.0040 -17.3946
# 13 vertices

vn 0.0000 1.0000 -0.0000
vn -0.0000 1.0000 -0.0000
vn -0.0000 1.0000 0.0000
# 3 vertex normals

vt -1.5764 -4.7310 0.0000
vt -1.5764 -4.7739 0.0000
vt -1.3855 -4.7739 0.0000
vt -1.3855 -4.6697 0.0000
vt 7.6202 2.4351 0.0000
vt -5.4724 2.4362 0.0000
vt -5.4767 -5.1559 0.0000
vt 7.6229 -5.1568 0.0000
vt -5.5160 6.5753 0.0000
vt -9.2930 6.2606 0.0000
vt -9.3648 -5.1557 0.0000
vt 1.7312 3.0565 0.0000
vt 1.2829 3.0565 0.0000
# 13 texture coords

o Gang_Endstück086
g Gang_Endstück086
usemtl Material__1084
s 1
f 1/1/1 2/2/1 3/3/1 
f 3/3/1 4/4/1 1/1/1 
s off
f 5/5/2 6/6/2 7/7/2 
f 7/7/2 8/8/2 5/5/2 
f 9/9/1 10/10/1 6/6/1 
f 10/10/2 11/11/2 7/7/2 
f 7/7/1 6/6/1 10/10/1 
f 5/5/3 12/12/3 13/13/3 
f 6/6/2 5/5/2 13/13/2 
f 6/6/1 13/13/1 9/9/1 
# 10 faces

