{"asset":{"version":"2.0","generator":"Babylon2Gltf2017","copyright":"2017 (c) BabylonJS"},"extensionsUsed":[],"extensionsRequired":[],"scene":0,"scenes":[{"nodes":[0,1,2]}],"nodes":[{"mesh":0,"translation":[-5.761838E-05,0.2306834,-0.00543347932],"rotation":[0.0,0.0,0.0,-1.0],"scale":[0.001029025,0.001029025,0.001029025],"name":"Thorso"},{"mesh":1,"translation":[-3.94112431E-05,0.164460257,0.0273156967],"rotation":[-0.7071068,0.0,0.0,-0.7071067],"scale":[0.000976383744,0.00089182,0.000976383744],"name":"Legs"},{"mesh":2,"translation":[-4.546484E-05,0.286988318,0.0130773392],"rotation":[-0.5,0.5,-0.50000006,-0.49999994],"scale":[0.0006907958,0.0007460993,0.0006907958],"name":"Helmet"}],"meshes":[{"primitives":[{"attributes":{"POSITION":1,"NORMAL":2,"TEXCOORD_0":3},"indices":0,"mode":4,"material":0}],"name":"Thorso"},{"primitives":[{"attributes":{"POSITION":5,"NORMAL":6,"TEXCOORD_0":7},"indices":4,"mode":4,"material":1}],"name":"Legs"},{"primitives":[{"attributes":{"POSITION":9,"NORMAL":10,"TEXCOORD_0":11},"indices":8,"mode":4,"material":2}],"name":"Helmet"}],"accessors":[{"bufferView":0,"componentType":5123,"count":13773,"type":"SCALAR","name":"accessorIndices"},{"bufferView":1,"componentType":5126,"count":13773,"max":[68.8027954,39.9918671,38.5532837],"min":[-68.8028,-52.2807922,-38.5533257],"type":"VEC3","name":"accessorPositions"},{"bufferView":1,"byteOffset":165276,"componentType":5126,"count":13773,"type":"VEC3","name":"accessorNormals"},{"bufferView":2,"componentType":5126,"count":13773,"type":"VEC2","name":"accessorUVs"},{"bufferView":0,"byteOffset":27548,"componentType":5123,"count":5148,"type":"SCALAR","name":"accessorIndices"},{"bufferView":1,"byteOffset":330552,"componentType":5126,"count":5148,"max":[39.93454,7.54719925,167.585571],"min":[-39.93454,-61.5945053,-21.5617371],"type":"VEC3","name":"accessorPositions"},{"bufferView":1,"byteOffset":392328,"componentType":5126,"count":5148,"type":"VEC3","name":"accessorNormals"},{"bufferView":2,"byteOffset":110184,"componentType":5126,"count":5148,"type":"VEC2","name":"accessorUVs"},{"bufferView":0,"byteOffset":37844,"componentType":5123,"count":7362,"type":"SCALAR","name":"accessorIndices"},{"bufferView":1,"byteOffset":454104,"componentType":5126,"count":7362,"max":[46.7749252,31.0349464,41.39621],"min":[-59.24522,-32.29157,-39.6029968],"type":"VEC3","name":"accessorPositions"},{"bufferView":1,"byteOffset":542448,"componentType":5126,"count":7362,"type":"VEC3","name":"accessorNormals"},{"bufferView":2,"byteOffset":151368,"componentType":5126,"count":7362,"type":"VEC2","name":"accessorUVs"}],"bufferViews":[{"buffer":0,"byteLength":52568,"name":"bufferViewScalar"},{"buffer":0,"byteOffset":52568,"byteLength":630792,"byteStride":12,"name":"bufferViewFloatVec3"},{"buffer":0,"byteOffset":683360,"byteLength":210264,"byteStride":8,"name":"bufferViewFloatVec2"}],"buffers":[{"uri":"Chief.bin","byteLength":893624}],"materials":[{"pbrMetallicRoughness":{"baseColorFactor":[1.0,1.0,1.0,1.0],"baseColorTexture":{"index":2},"metallicFactor":1.0,"roughnessFactor":1.0,"metallicRoughnessTexture":{"index":3}},"occlusionTexture":{"index":0},"emissiveTexture":{"index":1},"emissiveFactor":[1.0,1.0,1.0],"alphaMode":"BLEND","name":"Thorso"},{"pbrMetallicRoughness":{"baseColorFactor":[1.0,1.0,1.0,1.0],"baseColorTexture":{"index":6},"metallicFactor":1.0,"roughnessFactor":1.0,"metallicRoughnessTexture":{"index":7}},"occlusionTexture":{"index":4},"emissiveTexture":{"index":5},"emissiveFactor":[1.0,1.0,1.0],"alphaMode":"BLEND","name":"Leg"},{"pbrMetallicRoughness":{"baseColorFactor":[1.0,1.0,1.0,1.0],"baseColorTexture":{"index":10},"metallicFactor":1.0,"roughnessFactor":1.0,"metallicRoughnessTexture":{"index":11}},"occlusionTexture":{"index":8},"emissiveTexture":{"index":9},"emissiveFactor":[1.0,1.0,1.0],"alphaMode":"OPAQUE","name":"Head"}],"textures":[{"sampler":0,"source":0,"name":"Thorso_ao.jpg"},{"sampler":1,"source":1,"name":"Thorso_emissive.jpg"},{"sampler":2,"source":2,"name":"Thorso_baseColor.png"},{"sampler":3,"source":3,"name":"Thorso_metallicRoughness.jpg"},{"sampler":4,"source":4,"name":"Legs_ao.jpg"},{"sampler":5,"source":5,"name":"Legs_emissive.jpg"},{"sampler":6,"source":6,"name":"Leg_baseColor.png"},{"sampler":7,"source":7,"name":"Leg_metallicRoughness.jpg"},{"sampler":8,"source":8,"name":"Helmet_ao.jpg"},{"sampler":9,"source":9,"name":"Helmet_emissive.jpg"},{"sampler":10,"source":10,"name":"Head_baseColor.png"},{"sampler":11,"source":11,"name":"Head_metallicRoughness.jpg"}],"images":[{"uri":"Thorso_ao.jpg"},{"uri":"Thorso_emissive.jpg"},{"uri":"Thorso_baseColor.png"},{"uri":"Thorso_metallicRoughness.jpg"},{"uri":"Legs_ao.jpg"},{"uri":"Legs_emissive.jpg"},{"uri":"Leg_baseColor.png"},{"uri":"Leg_metallicRoughness.jpg"},{"uri":"Helmet_ao.jpg"},{"uri":"Helmet_emissive.jpg"},{"uri":"Head_baseColor.png"},{"uri":"Head_metallicRoughness.jpg"}],"samplers":[{"magFilter":9729,"minFilter":9987,"wrapS":10497,"wrapT":10497},{"magFilter":9729,"minFilter":9987,"wrapS":10497,"wrapT":10497},{"magFilter":9729,"minFilter":9987,"wrapS":10497,"wrapT":10497},{"magFilter":9729,"minFilter":9987,"wrapS":10497,"wrapT":10497},{"magFilter":9729,"minFilter":9987,"wrapS":10497,"wrapT":10497},{"magFilter":9729,"minFilter":9987,"wrapS":10497,"wrapT":10497},{"magFilter":9729,"minFilter":9987,"wrapS":10497,"wrapT":10497},{"magFilter":9729,"minFilter":9987,"wrapS":10497,"wrapT":10497},{"magFilter":9729,"minFilter":9987,"wrapS":10497,"wrapT":10497},{"magFilter":9729,"minFilter":9987,"wrapS":10497,"wrapT":10497},{"magFilter":9729,"minFilter":9987,"wrapS":10497,"wrapT":10497},{"magFilter":9729,"minFilter":9987,"wrapS":10497,"wrapT":10497}]}