{"asset":{"version":"2.0","generator":"Babylon2Gltf2017","copyright":"2017 (c) BabylonJS"},"extensionsUsed":[],"extensionsRequired":[],"scene":0,"scenes":[{"nodes":[0,1,2]}],"nodes":[{"mesh":0,"translation":[0.0120913982,283.54306,4.32552338],"rotation":[-0.49999994,0.5,-0.50000006,-0.49999994],"scale":[0.690795839,0.7460993,0.690795839],"name":"Helmet"},{"mesh":1,"translation":[0.0181385353,160.9562,18.5614],"rotation":[-0.7071068,0.0,0.0,-0.7071067],"scale":[0.9763838,0.89182,0.9763838],"name":"Legs"},{"mesh":2,"translation":[-6.520026E-05,227.186127,-14.18545],"rotation":[0.0,0.0,0.0,-1.0],"scale":[1.029025,1.029025,1.029025],"name":"Thorso"}],"meshes":[{"primitives":[{"attributes":{"POSITION":1,"NORMAL":2,"TEXCOORD_0":3},"indices":0,"mode":4,"material":0}],"name":"Helmet"},{"primitives":[{"attributes":{"POSITION":5,"NORMAL":6,"TEXCOORD_0":7},"indices":4,"mode":4,"material":1}],"name":"Legs"},{"primitives":[{"attributes":{"POSITION":9,"NORMAL":10,"TEXCOORD_0":11},"indices":8,"mode":4,"material":2}],"name":"Thorso"}],"accessors":[{"bufferView":0,"componentType":5123,"count":7362,"type":"SCALAR","name":"accessorIndices"},{"bufferView":1,"componentType":5126,"count":7362,"max":[46.7749176,31.0349445,41.39624],"min":[-59.2452164,-32.2915726,-39.6029663],"type":"VEC3","name":"accessorPositions"},{"bufferView":1,"byteOffset":88344,"componentType":5126,"count":7362,"type":"VEC3","name":"accessorNormals"},{"bufferView":2,"componentType":5126,"count":7362,"type":"VEC2","name":"accessorUVs"},{"bufferView":0,"byteOffset":14724,"componentType":5123,"count":5148,"type":"SCALAR","name":"accessorIndices"},{"bufferView":1,"byteOffset":176688,"componentType":5126,"count":5148,"max":[39.93454,7.547201,167.585556],"min":[-39.9345436,-61.5944977,-21.5617371],"type":"VEC3","name":"accessorPositions"},{"bufferView":1,"byteOffset":238464,"componentType":5126,"count":5148,"type":"VEC3","name":"accessorNormals"},{"bufferView":2,"byteOffset":58896,"componentType":5126,"count":5148,"type":"VEC2","name":"accessorUVs"},{"bufferView":0,"byteOffset":25020,"componentType":5123,"count":13773,"type":"SCALAR","name":"accessorIndices"},{"bufferView":1,"byteOffset":300240,"componentType":5126,"count":13773,"max":[68.8028,39.9919128,38.55338],"min":[-68.80279,-52.280777,-38.55333],"type":"VEC3","name":"accessorPositions"},{"bufferView":1,"byteOffset":465516,"componentType":5126,"count":13773,"type":"VEC3","name":"accessorNormals"},{"bufferView":2,"byteOffset":100080,"componentType":5126,"count":13773,"type":"VEC2","name":"accessorUVs"}],"bufferViews":[{"buffer":0,"byteLength":52568,"name":"bufferViewScalar"},{"buffer":0,"byteOffset":52568,"byteLength":630792,"byteStride":12,"name":"bufferViewFloatVec3"},{"buffer":0,"byteOffset":683360,"byteLength":210264,"byteStride":8,"name":"bufferViewFloatVec2"}],"buffers":[{"uri":"Chief.bin","byteLength":893624}],"materials":[{"pbrMetallicRoughness":{"baseColorFactor":[1.0,1.0,1.0,1.0],"baseColorTexture":{"index":2},"metallicFactor":1.0,"roughnessFactor":1.0,"metallicRoughnessTexture":{"index":3}},"occlusionTexture":{"index":0},"emissiveTexture":{"index":1},"emissiveFactor":[1.0,1.0,1.0],"alphaMode":"BLEND","name":"1"},{"pbrMetallicRoughness":{"baseColorFactor":[1.0,1.0,1.0,1.0],"baseColorTexture":{"index":6},"metallicFactor":1.0,"roughnessFactor":1.0,"metallicRoughnessTexture":{"index":7}},"occlusionTexture":{"index":4},"emissiveTexture":{"index":5},"emissiveFactor":[1.0,1.0,1.0],"alphaMode":"BLEND","name":"2"},{"pbrMetallicRoughness":{"baseColorFactor":[1.0,1.0,1.0,1.0],"baseColorTexture":{"index":10},"metallicFactor":1.0,"roughnessFactor":1.0,"metallicRoughnessTexture":{"index":11}},"occlusionTexture":{"index":8},"emissiveTexture":{"index":9},"emissiveFactor":[1.0,1.0,1.0],"alphaMode":"BLEND","name":"3"}],"textures":[{"sampler":0,"source":0,"name":"Helmet_ao.jpg"},{"sampler":1,"source":1,"name":"Helmet_emissive.jpg"},{"sampler":2,"source":2,"name":"1_baseColor.png"},{"sampler":3,"source":3,"name":"1_metallicRoughness.jpg"},{"sampler":4,"source":4,"name":"Legs_ao.jpg"},{"sampler":5,"source":5,"name":"Legs_emissive.jpg"},{"sampler":6,"source":6,"name":"2_baseColor.png"},{"sampler":7,"source":7,"name":"2_metallicRoughness.jpg"},{"sampler":8,"source":8,"name":"Thorso_ao.jpg"},{"sampler":9,"source":9,"name":"Thorso_emissive.jpg"},{"sampler":10,"source":10,"name":"3_baseColor.png"},{"sampler":11,"source":11,"name":"3_metallicRoughness.jpg"}],"images":[{"uri":"Helmet_ao.jpg"},{"uri":"Helmet_emissive.jpg"},{"uri":"1_baseColor.png"},{"uri":"1_metallicRoughness.jpg"},{"uri":"Legs_ao.jpg"},{"uri":"Legs_emissive.jpg"},{"uri":"2_baseColor.png"},{"uri":"2_metallicRoughness.jpg"},{"uri":"Thorso_ao.jpg"},{"uri":"Thorso_emissive.jpg"},{"uri":"3_baseColor.png"},{"uri":"3_metallicRoughness.jpg"}],"samplers":[{"magFilter":9729,"minFilter":9987,"wrapS":10497,"wrapT":10497},{"magFilter":9729,"minFilter":9987,"wrapS":10497,"wrapT":10497},{"magFilter":9729,"minFilter":9987,"wrapS":10497,"wrapT":10497},{"magFilter":9729,"minFilter":9987,"wrapS":10497,"wrapT":10497},{"magFilter":9729,"minFilter":9987,"wrapS":10497,"wrapT":10497},{"magFilter":9729,"minFilter":9987,"wrapS":10497,"wrapT":10497},{"magFilter":9729,"minFilter":9987,"wrapS":10497,"wrapT":10497},{"magFilter":9729,"minFilter":9987,"wrapS":10497,"wrapT":10497},{"magFilter":9729,"minFilter":9987,"wrapS":10497,"wrapT":10497},{"magFilter":9729,"minFilter":9987,"wrapS":10497,"wrapT":10497},{"magFilter":9729,"minFilter":9987,"wrapS":10497,"wrapT":10497},{"magFilter":9729,"minFilter":9987,"wrapS":10497,"wrapT":10497}]}