{"asset":{"version":"2.0","generator":"Babylon2Gltf2017","copyright":"2017 (c) BabylonJS"},"extensionsUsed":[],"extensionsRequired":[],"scene":0,"scenes":[{"nodes":[0,1,2]}],"nodes":[{"mesh":0,"translation":[-5.75976264E-05,0.02305603,-0.000415802],"rotation":[0.0,0.0,0.0,-1.0],"scale":[0.000102902493,0.000102902493,0.000102902493],"name":"Thorso"},{"mesh":1,"translation":[-5.638227E-05,0.0286865234,0.00143527985],"rotation":[-0.5,0.5,-0.50000006,-0.49999994],"scale":[6.907958E-05,7.46099249E-05,6.907958E-05],"name":"Helmet"},{"mesh":2,"translation":[-5.577691E-05,0.0164337158,0.0028591156],"rotation":[-0.7071068,0.0,0.0,-0.7071067],"scale":[9.76383744E-05,8.9182E-05,9.76383744E-05],"name":"Legs"}],"meshes":[{"primitives":[{"attributes":{"POSITION":1,"NORMAL":2,"TEXCOORD_0":3},"indices":0,"mode":4,"material":0}],"name":"Thorso"},{"primitives":[{"attributes":{"POSITION":5,"NORMAL":6,"TEXCOORD_0":7},"indices":4,"mode":4,"material":1}],"name":"Helmet"},{"primitives":[{"attributes":{"POSITION":9,"NORMAL":10,"TEXCOORD_0":11},"indices":8,"mode":4,"material":2}],"name":"Legs"}],"accessors":[{"bufferView":0,"componentType":5123,"count":13773,"type":"SCALAR","name":"accessorIndices"},{"bufferView":1,"componentType":5126,"count":13773,"max":[68.80282,39.9918823,38.55332],"min":[-68.80277,-52.2807922,-38.55332],"type":"VEC3","name":"accessorPositions"},{"bufferView":1,"byteOffset":165276,"componentType":5126,"count":13773,"type":"VEC3","name":"accessorNormals"},{"bufferView":2,"componentType":5126,"count":13773,"type":"VEC2","name":"accessorUVs"},{"bufferView":0,"byteOffset":27548,"componentType":5123,"count":7362,"type":"SCALAR","name":"accessorIndices"},{"bufferView":1,"byteOffset":330552,"componentType":5126,"count":7362,"max":[46.77492,31.0349464,41.39621],"min":[-59.245224,-32.2915726,-39.6029663],"type":"VEC3","name":"accessorPositions"},{"bufferView":1,"byteOffset":418896,"componentType":5126,"count":7362,"type":"VEC3","name":"accessorNormals"},{"bufferView":2,"byteOffset":110184,"componentType":5126,"count":7362,"type":"VEC2","name":"accessorUVs"},{"bufferView":0,"byteOffset":42272,"componentType":5123,"count":5148,"type":"SCALAR","name":"accessorIndices"},{"bufferView":1,"byteOffset":507240,"componentType":5126,"count":5148,"max":[39.93454,7.547203,167.585541],"min":[-39.9345436,-61.5945053,-21.5617371],"type":"VEC3","name":"accessorPositions"},{"bufferView":1,"byteOffset":569016,"componentType":5126,"count":5148,"type":"VEC3","name":"accessorNormals"},{"bufferView":2,"byteOffset":169080,"componentType":5126,"count":5148,"type":"VEC2","name":"accessorUVs"}],"bufferViews":[{"buffer":0,"byteLength":52568,"name":"bufferViewScalar"},{"buffer":0,"byteOffset":52568,"byteLength":630792,"byteStride":12,"name":"bufferViewFloatVec3"},{"buffer":0,"byteOffset":683360,"byteLength":210264,"byteStride":8,"name":"bufferViewFloatVec2"}],"buffers":[{"uri":"Chief.bin","byteLength":893624}],"materials":[{"pbrMetallicRoughness":{"baseColorFactor":[1.0,1.0,1.0,1.0],"baseColorTexture":{"index":2},"metallicFactor":1.0,"roughnessFactor":1.0,"metallicRoughnessTexture":{"index":3}},"occlusionTexture":{"index":0},"emissiveTexture":{"index":1},"emissiveFactor":[1.0,1.0,1.0],"alphaMode":"BLEND","name":"Thorso"},{"pbrMetallicRoughness":{"baseColorFactor":[1.0,1.0,1.0,1.0],"baseColorTexture":{"index":6},"metallicFactor":1.0,"roughnessFactor":1.0,"metallicRoughnessTexture":{"index":7}},"occlusionTexture":{"index":4},"emissiveTexture":{"index":5},"emissiveFactor":[1.0,1.0,1.0],"alphaMode":"OPAQUE","name":"Head"},{"pbrMetallicRoughness":{"baseColorFactor":[1.0,1.0,1.0,1.0],"baseColorTexture":{"index":10},"metallicFactor":1.0,"roughnessFactor":1.0,"metallicRoughnessTexture":{"index":11}},"occlusionTexture":{"index":8},"emissiveTexture":{"index":9},"emissiveFactor":[1.0,1.0,1.0],"alphaMode":"BLEND","name":"Leg"}],"textures":[{"sampler":0,"source":0,"name":"Thorso_ao.jpg"},{"sampler":1,"source":1,"name":"Thorso_emissive.jpg"},{"sampler":2,"source":2,"name":"Thorso_baseColor.png"},{"sampler":3,"source":3,"name":"Thorso_metallicRoughness.jpg"},{"sampler":4,"source":4,"name":"Helmet_ao.jpg"},{"sampler":5,"source":5,"name":"Helmet_emissive.jpg"},{"sampler":6,"source":6,"name":"Head_baseColor.png"},{"sampler":7,"source":7,"name":"Head_metallicRoughness.jpg"},{"sampler":8,"source":8,"name":"Legs_ao.jpg"},{"sampler":9,"source":9,"name":"Legs_emissive.jpg"},{"sampler":10,"source":10,"name":"Leg_baseColor.png"},{"sampler":11,"source":11,"name":"Leg_metallicRoughness.jpg"}],"images":[{"uri":"Thorso_ao.jpg"},{"uri":"Thorso_emissive.jpg"},{"uri":"Thorso_baseColor.png"},{"uri":"Thorso_metallicRoughness.jpg"},{"uri":"Helmet_ao.jpg"},{"uri":"Helmet_emissive.jpg"},{"uri":"Head_baseColor.png"},{"uri":"Head_metallicRoughness.jpg"},{"uri":"Legs_ao.jpg"},{"uri":"Legs_emissive.jpg"},{"uri":"Leg_baseColor.png"},{"uri":"Leg_metallicRoughness.jpg"}],"samplers":[{"magFilter":9729,"minFilter":9987,"wrapS":10497,"wrapT":10497},{"magFilter":9729,"minFilter":9987,"wrapS":10497,"wrapT":10497},{"magFilter":9729,"minFilter":9987,"wrapS":10497,"wrapT":10497},{"magFilter":9729,"minFilter":9987,"wrapS":10497,"wrapT":10497},{"magFilter":9729,"minFilter":9987,"wrapS":10497,"wrapT":10497},{"magFilter":9729,"minFilter":9987,"wrapS":10497,"wrapT":10497},{"magFilter":9729,"minFilter":9987,"wrapS":10497,"wrapT":10497},{"magFilter":9729,"minFilter":9987,"wrapS":10497,"wrapT":10497},{"magFilter":9729,"minFilter":9987,"wrapS":10497,"wrapT":10497},{"magFilter":9729,"minFilter":9987,"wrapS":10497,"wrapT":10497},{"magFilter":9729,"minFilter":9987,"wrapS":10497,"wrapT":10497},{"magFilter":9729,"minFilter":9987,"wrapS":10497,"wrapT":10497}]}