{"asset":{"version":"2.0","generator":"Babylon2Gltf2017","copyright":"2017 (c) BabylonJS"},"extensionsUsed":[],"extensionsRequired":[],"scene":0,"scenes":[{"nodes":[0,1,2]}],"nodes":[{"mesh":0,"translation":[0.0,0.0,0.0],"rotation":[0.0,0.0,0.0,-1.0],"scale":[1.0,1.0,1.0],"name":"Helmet"},{"mesh":1,"translation":[0.0,0.0,0.0],"rotation":[0.0,0.0,0.0,-1.0],"scale":[1.0,1.0,1.0],"name":"Legs"},{"mesh":2,"translation":[0.0,0.0,0.0],"rotation":[0.0,0.0,0.0,-1.0],"scale":[1.0,1.0,1.0],"name":"Thorso"}],"meshes":[{"primitives":[{"attributes":{"POSITION":1,"NORMAL":2,"TEXCOORD_0":3},"indices":0,"mode":4,"material":0}],"name":"Helmet"},{"primitives":[{"attributes":{"POSITION":5,"NORMAL":6,"TEXCOORD_0":7},"indices":4,"mode":4,"material":1}],"name":"Legs"},{"primitives":[{"attributes":{"POSITION":9,"NORMAL":10,"TEXCOORD_0":11},"indices":8,"mode":4,"material":2}],"name":"Thorso"}],"accessors":[{"bufferView":0,"componentType":5123,"count":7362,"type":"SCALAR","name":"accessorIndices"},{"bufferView":1,"componentType":5126,"count":7362,"max":[0.2411,3.1093,0.3664],"min":[-0.2315,2.5497,-0.366],"type":"VEC3","name":"accessorPositions"},{"bufferView":1,"byteOffset":88344,"componentType":5126,"count":7362,"type":"VEC3","name":"accessorNormals"},{"bufferView":2,"componentType":5126,"count":7362,"type":"VEC2","name":"accessorUVs"},{"bufferView":0,"byteOffset":14724,"componentType":5123,"count":5148,"type":"SCALAR","name":"accessorIndices"},{"bufferView":1,"byteOffset":176688,"componentType":5126,"count":5148,"max":[0.3901,1.8203,0.2529],"min":[-0.3898,-0.0267,-0.3637],"type":"VEC3","name":"accessorPositions"},{"bufferView":1,"byteOffset":238464,"componentType":5126,"count":5148,"type":"VEC3","name":"accessorNormals"},{"bufferView":2,"byteOffset":58896,"componentType":5126,"count":5148,"type":"VEC2","name":"accessorUVs"},{"bufferView":0,"byteOffset":25020,"componentType":5123,"count":13773,"type":"SCALAR","name":"accessorIndices"},{"bufferView":1,"byteOffset":300240,"componentType":5126,"count":13773,"max":[0.7081,2.6837,0.2549],"min":[-0.7081,1.7341,-0.5386],"type":"VEC3","name":"accessorPositions"},{"bufferView":1,"byteOffset":465516,"componentType":5126,"count":13773,"type":"VEC3","name":"accessorNormals"},{"bufferView":2,"byteOffset":100080,"componentType":5126,"count":13773,"type":"VEC2","name":"accessorUVs"}],"bufferViews":[{"buffer":0,"byteLength":52568,"name":"bufferViewScalar"},{"buffer":0,"byteOffset":52568,"byteLength":630792,"byteStride":12,"name":"bufferViewFloatVec3"},{"buffer":0,"byteOffset":683360,"byteLength":210264,"byteStride":8,"name":"bufferViewFloatVec2"}],"buffers":[{"uri":"Chief.bin","byteLength":893624}],"materials":[{"pbrMetallicRoughness":{"baseColorFactor":[1.0,1.0,1.0,1.0],"baseColorTexture":{"index":2},"metallicFactor":1.0,"roughnessFactor":1.0,"metallicRoughnessTexture":{"index":3}},"normalTexture":{"index":0},"occlusionTexture":{"index":1},"emissiveFactor":[0.0,0.0,0.0],"alphaMode":"OPAQUE","name":"Head"},{"pbrMetallicRoughness":{"baseColorFactor":[1.0,1.0,1.0,1.0],"baseColorTexture":{"index":6},"metallicFactor":1.0,"roughnessFactor":1.0,"metallicRoughnessTexture":{"index":7}},"normalTexture":{"index":4},"occlusionTexture":{"index":5},"emissiveFactor":[0.0,0.0,0.0],"alphaMode":"OPAQUE","name":"Leg"},{"pbrMetallicRoughness":{"baseColorFactor":[1.0,1.0,1.0,1.0],"baseColorTexture":{"index":10},"metallicFactor":1.0,"roughnessFactor":1.0,"metallicRoughnessTexture":{"index":11}},"normalTexture":{"index":8},"occlusionTexture":{"index":9},"emissiveFactor":[0.0,0.0,0.0],"alphaMode":"OPAQUE","name":"Thorso"}],"textures":[{"sampler":0,"source":0,"name":"Helmet_normal.jpg"},{"sampler":1,"source":1,"name":"Helmet_ao.jpg"},{"sampler":2,"source":2,"name":"Head_baseColor.png"},{"sampler":3,"source":3,"name":"Head_metallicRoughness.jpg"},{"sampler":4,"source":4,"name":"Legs_normal.jpg"},{"sampler":5,"source":5,"name":"Legs_ao.jpg"},{"sampler":6,"source":6,"name":"Leg_baseColor.png"},{"sampler":7,"source":7,"name":"Leg_metallicRoughness.jpg"},{"sampler":8,"source":8,"name":"Thorso_normal.jpg"},{"sampler":9,"source":9,"name":"Thorso_ao.jpg"},{"sampler":10,"source":10,"name":"Thorso_baseColor.png"},{"sampler":11,"source":11,"name":"Thorso_metallicRoughness.jpg"}],"images":[{"uri":"Helmet_normal.jpg"},{"uri":"Helmet_ao.jpg"},{"uri":"Head_baseColor.png"},{"uri":"Head_metallicRoughness.jpg"},{"uri":"Legs_normal.jpg"},{"uri":"Legs_ao.jpg"},{"uri":"Leg_baseColor.png"},{"uri":"Leg_metallicRoughness.jpg"},{"uri":"Thorso_normal.jpg"},{"uri":"Thorso_ao.jpg"},{"uri":"Thorso_baseColor.png"},{"uri":"Thorso_metallicRoughness.jpg"}],"samplers":[{"magFilter":9729,"minFilter":9987,"wrapS":10497,"wrapT":10497},{"magFilter":9729,"minFilter":9987,"wrapS":10497,"wrapT":10497},{"magFilter":9729,"minFilter":9987,"wrapS":10497,"wrapT":10497},{"magFilter":9729,"minFilter":9987,"wrapS":10497,"wrapT":10497},{"magFilter":9729,"minFilter":9987,"wrapS":10497,"wrapT":10497},{"magFilter":9729,"minFilter":9987,"wrapS":10497,"wrapT":10497},{"magFilter":9729,"minFilter":9987,"wrapS":10497,"wrapT":10497},{"magFilter":9729,"minFilter":9987,"wrapS":10497,"wrapT":10497},{"magFilter":9729,"minFilter":9987,"wrapS":10497,"wrapT":10497},{"magFilter":9729,"minFilter":9987,"wrapS":10497,"wrapT":10497},{"magFilter":9729,"minFilter":9987,"wrapS":10497,"wrapT":10497},{"magFilter":9729,"minFilter":9987,"wrapS":10497,"wrapT":10497}]}